<?xml version="1.0" encoding="utf-8"?>
<svg version="1.0" xmlns="http://www.w3.org/2000/svg" width="300.000000pt" height="300.000000pt" viewBox="4.062 32.391 644.675 239.169" preserveAspectRatio="xMidYMid meet" xmlns:bx="https://boxy-svg.com">
  <g transform="translate(0.000000,300.000000) scale(0.100000,-0.100000)" fill="#ffffff" stroke="none">
    <path d="M1036 2604 c-451 -89 -805 -446 -891 -897 -19 -103 -19 -311 0 -414 88 -464 469 -832 935 -904 45 -7 133 -9 220 -6 160 5 270 30 396 87 l67 30 494 0 c471 0 496 1 532 20 22 11 48 35 60 53 20 33 21 47 21 333 0 281 -1 301 -20 332 -41 67 -62 72 -286 72 l-200 0 4 139 c5 163 -8 267 -48 391 -60 182 -150 328 -287 461 -167 163 -356 262 -576 304 -98 19 -326 18 -421 -1z m405 -39 c331 -58 624 -275 774 -574 87 -173 117 -312 114 -530 -3 -204 -18 -191 228 -191 197 0 225 -6 257 -52 23 -32 24 -574 1 -617 -31 -61 -35 -61 -568 -61 l-485 0 -98 -39 c-157 -63 -280 -84 -454 -78 -114 4 -165 11 -239 31 -381 106 -668 394 -772 774 -30 111 -38 358 -14 473 57 285 208 519 440 684 112 80 271 148 405 174 30 6 64 13 75 15 51 10 261 5 336 -9z"/>
    <path d="M1065 2526 c-369 -71 -672 -331 -794 -680 -114 -323 -64 -673 134 -951 62 -87 206 -222 297 -278 337 -210 775 -208 1105 6 87 56 209 170 275 257 153 200 234 506 199 751 -35 244 -138 446 -318 620 -138 135 -270 208 -478 264 -82 22 -327 29 -420 11z m358 -41 c381 -66 693 -354 794 -732 23 -86 26 -117 26 -253 0 -135 -3 -167 -26 -252 -94 -352 -363 -621 -715 -715 -85 -23 -117 -26 -252 -26 -136 0 -167 3 -253 26 -361 97 -641 386 -725 751 -25 108 -22 356 6 458 90 331 319 584 632 698 158 58 345 74 513 45z"/>
    <path d="M1203 2369 c-89 -17 -163 -71 -205 -152 -32 -59 -32 -184 -1 -243 56 -105 141 -158 253 -158 223 0 356 247 232 432 -61 91 -175 141 -279 121z m173 -75 c30 -18 60 -48 79 -78 26 -43 30 -59 30 -120 -1 -143 -95 -238 -236 -237 -99 0 -174 48 -215 136 -55 117 -8 251 108 310 74 37 164 33 234 -11z"/>
    <path d="M1168 2270 c-38 -20 -78 -64 -78 -85 0 -6 8 -19 18 -28 15 -14 41 -17 144 -17 108 0 127 2 141 18 22 24 21 34 -4 66 -49 62 -150 83 -221 46z m145 -34 c18 -7 43 -25 57 -40 l24 -27 -44 8 c-25 4 -70 8 -100 8 -30 0 -75 -4 -100 -8 l-44 -8 24 27 c48 51 120 67 183 40z"/>
    <path d="M637 1959 c-223 -33 -309 -324 -142 -478 59 -54 107 -73 185 -74 242 -3 372 275 216 461 -60 70 -160 105 -259 91z m124 -49 c48 -13 118 -75 140 -124 11 -25 19 -65 19 -102 0 -138 -99 -236 -241 -236 -130 -1 -229 101 -229 234 0 79 24 134 78 179 66 55 148 72 233 49z"/>
    <path d="M590 1851 c-19 -10 -48 -37 -65 -60 -26 -37 -30 -52 -30 -105 0 -48 5 -68 23 -94 24 -33 52 -41 70 -19 6 6 28 65 49 129 39 117 41 139 9 160 -15 11 -17 10 -56 -11z m33 -77 c-15 -32 -34 -90 -44 -129 l-16 -70 -17 37 c-23 53 -20 108 7 149 21 31 86 84 94 76 2 -2 -9 -31 -24 -63z"/>
    <path d="M1767 1959 c-174 -26 -279 -222 -208 -386 26 -59 90 -124 148 -149 62 -27 167 -23 228 8 101 53 158 143 158 253 0 174 -150 300 -326 274z m124 -51 c52 -15 117 -73 140 -122 25 -54 24 -148 0 -201 -40 -87 -120 -135 -224 -135 -211 0 -310 261 -155 408 60 57 153 76 239 50z"/>
    <path d="M1840 1850 c-12 -12 -20 -27 -17 -33 2 -7 17 -50 31 -97 38 -118 57 -154 82 -158 29 -4 62 44 70 101 15 110 -107 246 -166 187z m86 -62 c48 -52 57 -109 28 -176 l-16 -37 -19 74 c-10 41 -30 99 -44 129 -14 30 -25 56 -25 58 0 10 57 -26 76 -48z"/>
    <path d="M1185 1676 c-78 -29 -135 -126 -120 -205 31 -167 241 -212 340 -72 58 82 33 199 -54 257 -47 31 -114 39 -166 20z m142 -56 c87 -52 83 -198 -6 -245 -65 -33 -158 -10 -197 50 -22 34 -23 115 0 149 41 64 138 86 203 46z"/>
    <path d="M1184 1566 c-46 -46 -46 -86 0 -132 25 -24 43 -34 66 -34 44 0 100 56 100 100 0 44 -56 100 -100 100 -23 0 -41 -9 -66 -34z m108 -23 c22 -20 23 -61 1 -85 -34 -38 -103 -11 -103 40 0 54 62 81 102 45z"/>
    <path d="M806 1284 c-70 -22 -149 -103 -170 -174 -33 -112 -11 -206 67 -285 115 -114 279 -115 393 -1 115 116 112 293 -7 400 -81 72 -176 93 -283 60z m201 -53 c54 -27 110 -92 124 -143 13 -51 7 -134 -14 -175 -27 -51 -86 -100 -144 -118 -226 -71 -408 197 -256 375 75 87 192 112 290 61z"/>
    <path d="M727 1042 c-23 -25 -21 -64 3 -112 39 -76 146 -128 205 -99 38 19 53 44 39 67 -6 9 -38 35 -71 57 -33 22 -77 55 -99 73 -45 37 -55 39 -77 14z m178 -133 c55 -31 57 -33 34 -41 -13 -5 -40 -6 -59 -3 -75 14 -121 62 -136 140 l-7 40 55 -51 c30 -29 81 -67 113 -85z"/>
    <path d="M1503 1284 c-53 -19 -128 -85 -156 -138 -17 -33 -22 -58 -22 -126 0 -102 19 -146 90 -208 139 -122 347 -83 433 82 38 73 38 179 0 252 -66 125 -213 184 -345 138z m205 -53 c82 -42 126 -117 126 -211 0 -196 -213 -305 -377 -192 -81 55 -119 182 -83 275 22 59 89 124 145 142 56 18 138 12 189 -14z"/>
    <path d="M1715 1040 c-99 -65 -190 -139 -193 -156 -8 -55 88 -77 163 -38 46 24 105 104 105 143 0 26 -24 71 -38 71 -4 0 -20 -9 -37 -20z m45 -17 c0 -35 -27 -87 -60 -116 -43 -40 -94 -54 -137 -40 l-28 10 51 26 c29 14 76 49 105 76 52 49 69 59 69 44z"/>
    <path d="M2231 1013 c-16 -16 -51 -66 -77 -112 l-48 -83 27 -24 c26 -22 37 -24 131 -24 94 0 104 2 124 23 19 20 22 35 22 113 0 82 -2 93 -23 112 -36 34 -117 31 -156 -5z m149 -108 l0 -95 -121 0 c-93 0 -118 3 -112 13 4 6 24 36 44 64 20 29 42 66 49 83 12 29 15 30 76 30 l64 0 0 -95z"/>
    <path d="M2482 1017 c-19 -20 -22 -35 -22 -111 0 -79 2 -89 25 -111 23 -24 30 -25 140 -25 110 0 117 1 140 25 23 22 25 32 25 108 0 70 -3 89 -21 111 -20 26 -23 26 -143 26 -115 0 -124 -1 -144 -23z m268 -112 l0 -95 -125 0 -125 0 0 95 0 95 125 0 125 0 0 -95z"/>
  </g>
  <text style="fill: rgb(255, 255, 255); font-family: Roboto; font-size: 127.997px; line-height: 204.796px; white-space: pre;" transform="matrix(1, 0.006617, 0, 1, -6.653137, 57.313305)"><tspan x="305.054" y="74.007">Movie</tspan><tspan x="305.054" dy="1em">​</tspan><tspan>DB</tspan></text>
  <defs>
    <style bx:fonts="Roboto">@import url(https://fonts.googleapis.com/css2?family=Roboto%3Aital%2Cwght%400%2C100%3B0%2C300%3B0%2C400%3B0%2C500%3B0%2C700%3B0%2C900%3B1%2C100%3B1%2C300%3B1%2C400%3B1%2C500%3B1%2C700%3B1%2C900&amp;display=swap);</style>
    <bx:grid x="4.062" y="12.184" width="644.675" height="270.578"/>
    <bx:export>
      <bx:file format="svg" units="pt"/>
    </bx:export>
  </defs>
</svg>